<svg xmlns="http://www.w3.org/2000/svg" viewBox="0 0 901.56 961.42"><title>Dark</title><polygon points="451.06 960.71 0.5 800.91 0.5 161.71 451.06 0.71 451.06 960.71" style="fill:#0c0a09;stroke:#f6f4f3;stroke-miterlimit:10"/><polygon points="901.06 161.71 901.06 800.91 450.5 960.71 450.5 0.71 901.06 161.71" style="fill:#f6f4f3;stroke:#0c0a09;stroke-miterlimit:10"/><polygon points="374.33 412.79 346.95 377.95 527.38 376.71 562.21 411.55 374.33 412.79" style="fill:#0063ff;stroke:#020c3c;stroke-miterlimit:10;stroke-width:7.5px"/><path d="M492.54,482.47H373.08V591H410.4V518.55h117Z" style="fill:#0063ff;stroke:#020c3c;stroke-miterlimit:10;stroke-width:7.5px"/><polygon points="809.4 590.71 775.82 590.71 775.5 460.46 702.09 533.87 702.87 535.97 541.18 375.46 594.15 375.46 702.4 483.71 809.4 376.71 809.4 590.71" style="fill:#0063ff;stroke:#020c3c;stroke-miterlimit:10;stroke-width:7.5px"/><polygon points="89.3 590.71 122.89 590.71 123.2 460.46 196.62 533.87 195.83 535.97 319.91 412.79 361.51 412.79 333.6 376.71 303.3 376.71 196.29 483.71 89.3 376.71 89.3 590.71" style="fill:#0063ff;stroke:#020c3c;stroke-miterlimit:10;stroke-width:7.5px"/></svg>
